Coordinates
version=1
nRows=14
nColumns=24
inDegrees=yes

Units are S.I. units (second, meters, Newtons, ...)
Angles are in degrees.

endheader
time	pelvis_tilt	pelvis_list	pelvis_rotation	pelvis_tx	pelvis_ty	pelvis_tz	hip_flexion_r	hip_adduction_r	hip_rotation_r	knee_angle_r	ankle_angle_r	subtalar_angle_r	mtp_angle_r	hip_flexion_l	hip_adduction_l	hip_rotation_l	knee_angle_l	ankle_angle_l	subtalar_angle_l	mtp_angle_l	lumbar_extension	lumbar_bending	lumbar_rotation
      0.69016667	      2.04168021	      3.22772142	      0.36502006	     -0.45271407	      1.02395857	      0.27375840	      5.86529021	      1.30154787	      1.61897945	    -13.41035020	      5.52849611	    -14.25181507	      4.80183448	     13.50393129	      1.63523298	     -6.78340373	    -65.75255797	      0.71610533	    -16.25542082	     -2.24395138	     -5.60713297	     -3.24579615	      3.22103409
      0.69433333	      2.03736846	      3.36384847	      0.18977109	     -0.44753404	      1.02469299	      0.27401680	      5.39994081	      1.15270820	      1.70057769	    -13.09111553	      5.64964524	    -14.09700018	      4.80997980	     14.00648117	      1.76325754	     -6.92709162	    -65.36316391	      0.94058368	    -16.40638164	     -2.30812213	     -5.61961711	     -3.36904663	      3.56432908
      0.69850000	      1.99519457	      3.50780204	      0.00242344	     -0.44235540	      1.02532959	      0.27428049	      4.98714686	      0.99249704	      1.78211954	    -12.78747884	      5.71636380	    -13.94930670	      4.81617880	     14.53675418	      1.89325128	     -7.08893246	    -64.91221480	      1.19841063	    -16.49565472	     -2.33756495	     -5.59485496	     -3.52092839	      3.75128503
      0.70266667	      2.00782543	      3.64253577	     -0.18005778	     -0.43717893	      1.02601253	      0.27452304	      4.50663173	      0.83696073	      1.84487556	    -12.47036614	      5.86542696	    -13.75139453	      4.82950876	     14.99148277	      2.01443038	     -7.23576833	    -64.39183423	      1.41443544	    -16.54114973	     -2.39042996	     -5.63466383	     -3.65622667	      4.14790562
      0.70683333	      1.96775056	      3.77041763	     -0.36375897	     -0.43200286	      1.02657442	      0.27475540	      4.08410032	      0.68720508	      1.91649728	    -12.14635241	      5.92028233	    -13.59420214	      4.83641887	     15.49315832	      2.12644551	     -7.38301303	    -63.82126374	      1.66186899	    -16.53873965	     -2.40696086	     -5.61486194	     -3.79459137	      4.30377294
      0.71100000	      1.97152107	      3.90237482	     -0.57040815	     -0.42679797	      1.02716134	      0.27498050	      3.62276422	      0.52568158	      1.97041401	    -11.84176145	      6.04342648	    -13.39214045	      4.85038954	     15.91779097	      2.23872265	     -7.54795944	    -63.16939883	      1.90056041	    -16.45289497	     -2.43280121	     -5.62182599	     -3.90743092	      4.66784166
      0.71516667	      1.94289827	      4.02359715	     -0.76129810	     -0.42161635	      1.02765509	      0.27518951	      3.19262930	      0.37507981	      2.02727851	    -11.52460558	      6.13624363	    -13.20294223	      4.86280586	     16.37225752	      2.34214820	     -7.69091968	    -62.47394114	      2.12919504	    -16.35937927	     -2.44832901	     -5.61131978	     -4.02789420	      4.93032410
      0.71933333	      1.93894195	      4.13268675	     -0.95230403	     -0.41642844	      1.02814170	      0.27538488	      2.73179628	      0.23362073	      2.07005540	    -11.20063026	      6.29027253	    -12.97676097	      4.88446731	     16.78374751	      2.43059505	     -7.82950619	    -61.72262371	      2.35235715	    -16.21667765	     -2.46702032	     -5.62944283	     -4.13672111	      5.31874531
      0.72350000	      1.92867923	      4.24132747	     -1.14934446	     -0.41122643	      1.02857971	      0.27557511	      2.27895659	      0.09033345	      2.11864007	    -10.87678358	      6.39388438	    -12.78247795	      4.90393372	     17.18172352	      2.51694110	     -7.97231365	    -60.91124473	      2.57135162	    -16.03901141	     -2.47509846	     -5.63227917	     -4.23918216	      5.59531630
      0.72766667	      1.91441141	      4.33966817	     -1.34179081	     -0.40602981	      1.02895096	      0.27574185	      1.83100038	     -0.04468986	      2.16127276	    -10.55233431	      6.49932713	    -12.57597215	      4.92534951	     17.57042842	      2.59423486	     -8.10399577	    -60.05195603	      2.79492882	    -15.82443560	     -2.47507326	     -5.63484227	     -4.32738366	      5.88604928
      0.73183333	      1.87892675	      4.44360612	     -1.53478029	     -0.40081963	      1.02927528	      0.27589426	      1.40945395	     -0.18830642	      2.20786266	    -10.23284645	      6.55439357	    -12.39997861	      4.93845551	     17.95922756	      2.68095153	     -8.22808275	    -59.12460588	      2.98655584	    -15.60811908	     -2.46915665	     -5.60642670	     -4.42391007	      6.07660517
      0.73600000	      1.88005410	      4.54437147	     -1.73350426	     -0.39561922	      1.02959224	      0.27605457	      0.94761918	     -0.33188337	      2.24439903	     -9.90849216	      6.65767823	    -12.19958084	      4.95447503	     18.28982290	      2.75964913	     -8.35895819	    -58.14474067	      3.18485260	    -15.33493268	     -2.45754097	     -5.62358766	     -4.51555285	      6.35099585
      0.74016667	      1.90418784	      4.61002807	     -1.91771040	     -0.39041107	      1.02988873	      0.27618401	      0.44742539	     -0.43961509	      2.28013882	     -9.56420846	      6.79656480	    -11.98460126	      4.97968571	     18.58300420	      2.80353500	     -8.46893261	    -57.13302155	      3.38406202	    -15.05441995	     -2.43300589	     -5.67611700	     -4.56522028	      6.72228006
      0.74433333	      1.87458458	      4.68694654	     -2.10421595	     -0.38519522	      1.03005786	      0.27631249	      0.01822034	     -0.55891058	      2.31939372	     -9.24261873	      6.90141870	    -11.80465593	      5.00187991	     18.91453592	      2.85665652	     -8.58424451	    -56.06456558	      3.55674434	    -14.76113355	     -2.40388513	     -5.65560209	     -4.63197786	      6.99096429
